<?xml version="1.0" encoding="utf-8"?>
<!-- Generator: Adobe Illustrator 27.5.0, SVG Export Plug-In . SVG Version: 6.00 Build 0)  -->
<svg version="1.1" xmlns="http://www.w3.org/2000/svg" xmlns:xlink="http://www.w3.org/1999/xlink" x="0px" y="0px"
	 viewBox="0 0 750 500" style="enable-background:new 0 0 750 500;" xml:space="preserve">
<g id="BACKGROUND">
	<g>
		<g>
			<g>
				<g>
					<rect style="fill:#FFFFFF;" width="750" height="500"/>
				</g>
			</g>
		</g>
		<g>
			<path style="fill:#DFF1F4;" d="M574.712,199.961c-0.094,0-0.188,0-0.282,0c-10.116,0.026-18.885-6.753-21.416-16.547
				C532.547,104.204,460.606,45.694,375,45.694s-157.547,58.509-178.014,137.72c-2.531,9.794-11.301,16.573-21.416,16.547
				c-0.094,0-0.188,0-0.282,0c-59.444,0-107.537,48.602-106.707,108.237c0.792,56.929,46.843,103.623,103.756,105.159
				c35.324,0.953,66.902-15.265,86.999-40.911c31.592,25.603,71.833,40.951,115.665,40.951s84.073-15.348,115.665-40.951
				c20.096,25.646,51.675,41.864,86.999,40.911c56.913-1.536,102.964-48.23,103.756-105.159
				C682.249,248.563,634.157,199.961,574.712,199.961z"/>
			<rect x="172.336" y="358.15" style="fill:#DFF1F4;" width="405.327" height="55.206"/>
		</g>
	</g>
</g>
<g id="OBJECTS">
	<g>
		<g>
			<path style="fill:#506029;" d="M585.204,339.087c0.288,0.928,0.63,1.849,1.02,2.753c0.886,2.059,2.036,4.028,3.401,5.849
				c1.365,1.823,2.968,3.482,4.734,4.961c1.786,1.464,3.736,2.745,5.809,3.831c0.101,0.053,0.207,0.114,0.305,0.176
				c2.088,1.318,2.506,4.024,0.521,5.435c-1.191,0.846-2.969,0.773-4.344-0.095l-0.004-0.003c-2.457-1.551-4.753-3.346-6.798-5.339
				c-2.028-2.008-3.802-4.207-5.238-6.53c-0.842-1.361-1.574-2.759-2.198-4.18c-0.006-0.014-0.027-0.014-0.031-0.001
				c-5.971,17.729,1.703,28.492,9.622,33.081c2.775,1.608,6.243,0.924,7.638-1.477l3.905-6.72c0.598-1.029,1.973-1.512,3.344-1.09
				c0.109,0.034,0.215,0.073,0.319,0.117c0.104,0.043,0.206,0.091,0.307,0.145c1.264,0.679,1.886,1.997,1.573,3.145l-2.04,7.5
				c-0.729,2.68,1.22,5.629,4.314,6.474c8.829,2.413,21.88,0.314,30.304-16.389c0.006-0.013-0.009-0.027-0.023-0.022
				c-1.449,0.554-2.958,1.015-4.518,1.372c-2.662,0.61-5.473,0.891-8.327,0.859c-2.855-0.056-5.746-0.429-8.575-1.088l-0.005-0.001
				c-1.584-0.369-2.885-1.583-3.119-3.025c-0.39-2.404,1.829-4.007,4.234-3.446c0.113,0.026,0.231,0.059,0.34,0.094
				c2.229,0.713,4.511,1.201,6.807,1.444c2.294,0.218,4.6,0.193,6.857-0.115c2.255-0.307,4.464-0.872,6.552-1.688
				c0.917-0.357,1.813-0.76,2.676-1.207c0.003-0.002,0.005-0.004,0.007-0.008c1.739-4.899,2.593-9.375,2.813-13.432
				c0.001-0.013-0.017-0.022-0.028-0.014c-0.483,0.338-0.975,0.666-1.48,0.979c-2.251,1.399-4.706,2.551-7.288,3.485
				c-2.588,0.918-5.301,1.626-8.095,2.087c-2.792,0.469-5.655,0.724-8.545,0.782c-1.273,0.026-2.546-0.673-3.081-1.769
				c-0.896-1.836,0.367-3.562,2.306-3.601c0.113-0.002,0.228,0.002,0.339,0.011c2.621,0.217,5.239,0.257,7.825,0.102
				c2.589-0.147,5.135-0.523,7.612-1.1c2.468-0.592,4.866-1.394,7.113-2.445c1.164-0.544,2.286-1.154,3.353-1.829
				c0.003-0.005,0.005-0.01,0.008-0.016c-0.12-3.9-0.825-7.365-1.848-10.404c-0.004-0.011-0.019-0.016-0.028-0.008
				c-0.169,0.139-0.339,0.277-0.514,0.41c-1.714,1.335-3.629,2.443-5.643,3.368c-2.016,0.925-4.135,1.669-6.316,2.26
				c-1.091,0.297-2.198,0.556-3.322,0.777c-0.563,0.109-1.129,0.213-1.704,0.302c-0.287,0.045-0.576,0.088-0.871,0.127l-0.445,0.056
				c-0.158,0.018-0.29,0.034-0.489,0.051l-0.038,0.003c-1.143,0.098-2.33-0.51-2.817-1.507c-0.71-1.455,0.22-2.884,1.781-3.018
				c0.076-0.007,0.156-0.01,0.232-0.01c0.078,0,0.22-0.006,0.337-0.011l0.378-0.021c0.254-0.015,0.511-0.035,0.769-0.057
				c0.515-0.042,1.032-0.099,1.548-0.161c1.032-0.128,2.059-0.291,3.073-0.488c2.03-0.394,4.01-0.928,5.892-1.622
				c1.881-0.694,3.667-1.55,5.274-2.602c0.561-0.356,1.084-0.748,1.589-1.158c0.005-0.004,0.006-0.01,0.004-0.016
				c-2.794-6.158-6.697-10.122-8.571-11.963c-3.994-3.923-4.387-8.43-4.423-9.066c-0.001-0.017-0.026-0.022-0.032-0.007
				c0.006-0.015-0.015-0.029-0.028-0.018c-0.479,0.422-3.962,3.308-9.56,3.22c-2.627-0.041-8.19-0.034-14.535,2.303
				c-0.006,0.002-0.01,0.008-0.009,0.014c0.062,0.647,0.151,1.296,0.292,1.944c0.379,1.883,1.025,3.755,1.852,5.582
				c0.828,1.827,1.839,3.612,2.984,5.333c0.572,0.861,1.177,1.706,1.811,2.53c0.318,0.411,0.641,0.819,0.973,1.215
				c0.165,0.199,0.332,0.396,0.5,0.587l0.25,0.284c0.079,0.087,0.175,0.193,0.229,0.248c0.053,0.054,0.107,0.113,0.156,0.172
				c1.001,1.206,0.638,2.871-0.897,3.387c-1.051,0.353-2.318-0.064-3.051-0.947l-0.024-0.029c-0.128-0.153-0.209-0.259-0.307-0.384
				l-0.273-0.357c-0.179-0.237-0.352-0.472-0.521-0.709c-0.341-0.472-0.665-0.947-0.983-1.425c-0.632-0.956-1.225-1.926-1.78-2.911
				c-1.111-1.968-2.069-3.999-2.827-6.083c-0.757-2.083-1.313-4.224-1.567-6.382c-0.029-0.218-0.05-0.436-0.07-0.654
				c-0.001-0.011-0.015-0.019-0.026-0.014c-2.882,1.406-5.844,3.338-8.703,5.992c-0.002,0.006-0.003,0.011-0.005,0.017
				c0.27,1.233,0.623,2.461,1.054,3.671c0.831,2.337,1.944,4.608,3.256,6.78c1.329,2.167,2.85,4.244,4.564,6.19
				c1.706,1.95,3.574,3.785,5.569,5.498c0.084,0.073,0.168,0.152,0.245,0.233c1.335,1.408,0.993,3.519-0.943,4.171
				c-1.156,0.389-2.547-0.026-3.423-0.95c-1.989-2.098-3.818-4.315-5.446-6.632c-1.635-2.312-3.036-4.741-4.201-7.228
				c-1.148-2.493-2.053-5.051-2.638-7.635c-0.131-0.579-0.244-1.16-0.343-1.741c-0.002-0.013-0.021-0.02-0.03-0.01
				c-2.733,3.006-5.319,6.758-7.585,11.437C585.203,339.08,585.203,339.083,585.204,339.087z"/>
			<path style="fill:#5F7A2A;" d="M632.586,353.953c-0.398,0.886-0.751,1.803-1.056,2.739c-0.698,2.13-1.139,4.368-1.319,6.636
				c-0.182,2.27-0.078,4.574,0.268,6.852c0.371,2.279,0.985,4.53,1.822,6.716c0.041,0.107,0.08,0.222,0.113,0.334
				c0.694,2.37-0.783,4.676-3.205,4.42c-1.453-0.154-2.738-1.384-3.195-2.945l-0.001-0.004c-0.816-2.788-1.35-5.654-1.565-8.501
				c-0.192-2.848-0.068-5.67,0.393-8.362c0.269-1.578,0.645-3.11,1.117-4.588c0.005-0.014-0.011-0.029-0.023-0.022
				c-16.207,9.343-17.574,22.491-14.672,31.172c1.017,3.042,4.07,4.823,6.705,3.946l7.375-2.455c1.129-0.376,2.48,0.171,3.228,1.395
				c0.06,0.098,0.113,0.198,0.162,0.299c0.049,0.101,0.094,0.205,0.134,0.312c0.498,1.345,0.093,2.745-0.901,3.399l-6.492,4.274
				c-2.319,1.527-2.809,5.028-1.048,7.709c5.024,7.65,16.199,14.711,33.567,7.76c0.013-0.005,0.011-0.026-0.003-0.031
				c-1.453-0.543-2.89-1.196-4.296-1.961c-2.4-1.304-4.694-2.953-6.812-4.865c-2.103-1.931-4.024-4.123-5.71-6.489l-0.003-0.004
				c-0.944-1.325-1.116-3.095-0.337-4.332c1.298-2.061,4.023-1.794,5.455,0.217c0.068,0.095,0.134,0.197,0.193,0.295
				c1.2,2.01,2.588,3.885,4.149,5.586c1.576,1.681,3.322,3.189,5.218,4.45c1.894,1.262,3.924,2.3,6.03,3.069
				c0.924,0.339,1.862,0.63,2.805,0.865c0.003,0.001,0.007,0,0.01-0.001c4.545-2.523,8.147-5.314,10.996-8.211
				c0.009-0.009,0.002-0.028-0.011-0.029c-0.586-0.066-1.172-0.146-1.758-0.245c-2.613-0.44-5.217-1.201-7.77-2.208
				c-2.548-1.024-5.051-2.288-7.451-3.79c-2.404-1.495-4.72-3.198-6.925-5.067c-0.972-0.823-1.464-2.189-1.14-3.365
				c0.542-1.969,2.631-2.428,4.112-1.174c0.086,0.073,0.169,0.152,0.247,0.232c1.822,1.896,3.758,3.658,5.8,5.253
				c2.039,1.603,4.197,3.005,6.435,4.211c2.243,1.189,4.571,2.174,6.951,2.873c1.232,0.362,2.478,0.647,3.724,0.847
				c0.006-0.002,0.011-0.004,0.017-0.006c2.491-3.003,4.255-6.068,5.497-9.024c0.005-0.011-0.004-0.025-0.015-0.025
				c-0.219-0.007-0.438-0.016-0.656-0.033c-2.169-0.133-4.338-0.569-6.46-1.208c-2.124-0.641-4.205-1.484-6.232-2.484
				c-1.014-0.499-2.015-1.037-3.005-1.615c-0.495-0.291-0.987-0.587-1.477-0.901c-0.246-0.156-0.49-0.316-0.737-0.481l-0.371-0.252
				c-0.13-0.091-0.24-0.166-0.4-0.285l-0.03-0.023c-0.922-0.683-1.41-1.924-1.115-2.993c0.43-1.561,2.072-2.017,3.332-1.085
				c0.062,0.046,0.124,0.096,0.181,0.146c0.058,0.051,0.17,0.141,0.261,0.215l0.297,0.234c0.201,0.156,0.406,0.312,0.614,0.466
				c0.414,0.309,0.84,0.609,1.268,0.903c0.858,0.587,1.736,1.144,2.627,1.667c1.782,1.048,3.621,1.957,5.491,2.682
				c1.87,0.724,3.775,1.264,5.676,1.538c0.656,0.104,1.308,0.156,1.958,0.183c0.006,0,0.012-0.004,0.014-0.01
				c1.979-6.466,1.675-12.021,1.488-14.641c-0.399-5.585,2.288-9.224,2.682-9.725c0.01-0.013-0.005-0.034-0.02-0.027
				c0.014-0.007,0.008-0.032-0.009-0.032c-0.638,0-5.159-0.141-9.299-3.91c-1.943-1.769-6.119-5.444-12.423-7.89
				c-0.006-0.002-0.013-0.001-0.016,0.005c-0.381,0.527-0.744,1.071-1.068,1.651c-0.961,1.663-1.716,3.494-2.304,5.411
				c-0.588,1.918-1.011,3.925-1.291,5.973c-0.141,1.024-0.246,2.058-0.316,3.095c-0.033,0.519-0.061,1.038-0.075,1.555
				c-0.008,0.258-0.013,0.516-0.014,0.771l0,0.378c0.002,0.117,0.003,0.26,0.008,0.338c0.004,0.076,0.005,0.156,0.003,0.232
				c-0.047,1.566-1.421,2.575-2.914,1.947c-1.022-0.43-1.696-1.581-1.661-2.728l0.001-0.038c0.006-0.199,0.015-0.332,0.024-0.491
				l0.031-0.448c0.022-0.296,0.049-0.587,0.078-0.876c0.057-0.579,0.128-1.15,0.206-1.718c0.159-1.135,0.356-2.255,0.591-3.36
				c0.469-2.211,1.094-4.367,1.904-6.432c0.811-2.063,1.81-4.036,3.047-5.822c0.123-0.182,0.251-0.36,0.38-0.536
				c0.007-0.009,0.001-0.024-0.01-0.028c-3.091-0.852-6.591-1.363-10.491-1.265c-0.005,0.003-0.01,0.006-0.015,0.009
				c-0.614,1.104-1.161,2.258-1.639,3.45c-0.923,2.302-1.591,4.741-2.044,7.239c-0.437,2.505-0.671,5.068-0.673,7.661
				c-0.01,2.591,0.175,5.203,0.538,7.807c0.015,0.11,0.026,0.225,0.03,0.337c0.07,1.939-1.584,3.296-3.466,2.504
				c-1.124-0.473-1.893-1.705-1.938-2.977c-0.104-2.889-0.009-5.762,0.304-8.576c0.304-2.815,0.86-5.563,1.632-8.199
				c0.789-2.629,1.802-5.146,3.073-7.471c0.285-0.521,0.584-1.031,0.895-1.532c0.007-0.011-0.003-0.028-0.016-0.027
				c-4.039,0.446-8.46,1.549-13.254,3.558C632.59,353.948,632.587,353.95,632.586,353.953z"/>
			<path style="fill:#9DC11E;" d="M667.977,404.563c-0.706,0-1.402,0.04-2.088,0.112c-2.718-15.97-16.586-28.14-33.33-28.14
				c-3.487,0-6.851,0.53-10.016,1.509c-6.204-21.723-26.189-37.631-49.904-37.631c-23.57,0-43.458,15.714-49.791,37.233
				c-2.711-0.7-5.538-1.111-8.467-1.111c-16.881,0-30.836,12.372-33.39,28.535c-1.417-0.321-2.885-0.506-4.399-0.506
				c-10.953,0-19.833,8.88-19.833,19.833c0,10.953,8.88,19.833,19.833,19.833h191.385c10.953,0,19.833-8.88,19.833-19.833
				C687.81,413.443,678.931,404.563,667.977,404.563z"/>
			<path style="fill:#779137;" d="M662.494,416.553c-0.492,0-0.978,0.028-1.457,0.078c-1.896-11.143-11.572-19.634-23.255-19.634
				c-2.433,0-4.78,0.37-6.989,1.053c-4.329-15.157-18.273-26.256-34.819-26.256c-16.445,0-30.322,10.964-34.74,25.979
				c-1.892-0.488-3.864-0.775-5.908-0.775c-11.779,0-21.515,8.632-23.297,19.91c-0.988-0.224-2.013-0.353-3.069-0.353
				c-7.643,0-13.838,6.195-13.838,13.838c0,7.642,6.196,13.838,13.838,13.838h133.535c7.642,0,13.838-6.196,13.838-13.838
				C676.332,422.748,670.136,416.553,662.494,416.553z"/>
			<path style="opacity:0.5;fill:#506029;" d="M481.218,403.814l114.508-13.625H487.253
				C484.307,394.154,482.209,398.785,481.218,403.814z"/>
		</g>
		<g>
			<path style="fill:#506029;" d="M141.096,368.032c-0.103,0.966-0.261,1.936-0.47,2.898c-0.472,2.191-1.221,4.345-2.209,6.395
				c-0.988,2.052-2.241,3.989-3.688,5.781c-1.47,1.781-3.136,3.415-4.961,4.879c-0.089,0.072-0.181,0.152-0.266,0.232
				c-1.795,1.696-1.683,4.432,0.537,5.433c1.332,0.601,3.062,0.186,4.244-0.931l0.003-0.003c2.111-1.995,4.018-4.2,5.641-6.55
				c1.602-2.362,2.919-4.861,3.88-7.418c0.564-1.498,1.012-3.011,1.35-4.525c0.003-0.015,0.024-0.019,0.031-0.007
				c9.279,16.244,3.826,28.285-3.059,34.316c-2.413,2.114-5.948,2.111-7.78,0.024l-5.129-5.841
				c-0.785-0.895-2.227-1.103-3.491-0.424c-0.101,0.054-0.197,0.114-0.291,0.176c-0.093,0.063-0.185,0.129-0.273,0.202
				c-1.109,0.91-1.465,2.324-0.937,3.39l3.449,6.966c1.232,2.489-0.111,5.758-2.984,7.185c-8.198,4.071-21.408,4.529-32.896-10.235
				c-0.008-0.011,0.004-0.028,0.018-0.026c1.529,0.264,3.099,0.425,4.698,0.474c2.73,0.085,5.542-0.181,8.336-0.764
				c2.79-0.606,5.555-1.529,8.204-2.722l0.004-0.002c1.483-0.668,2.525-2.11,2.477-3.57c-0.081-2.434-2.568-3.578-4.82-2.565
				c-0.106,0.048-0.215,0.103-0.315,0.158c-2.05,1.13-4.194,2.049-6.401,2.73c-2.209,0.656-4.477,1.077-6.75,1.21
				c-2.272,0.134-4.549,0.006-6.754-0.392c-0.969-0.173-1.926-0.396-2.859-0.668c-0.003-0.001-0.006-0.003-0.008-0.006
				c-2.651-4.472-4.353-8.699-5.351-12.637c-0.003-0.013,0.012-0.025,0.025-0.02c0.539,0.239,1.085,0.465,1.641,0.675
				c2.478,0.938,5.11,1.595,7.823,2.014c2.717,0.401,5.515,0.573,8.345,0.486c2.83-0.078,5.689-0.38,8.536-0.881
				c1.254-0.22,2.368-1.151,2.682-2.33c0.525-1.974-1.047-3.424-2.958-3.088c-0.111,0.02-0.223,0.046-0.33,0.076
				c-2.53,0.718-5.091,1.262-7.659,1.609c-2.569,0.355-5.139,0.477-7.681,0.389c-2.536-0.105-5.044-0.43-7.451-1.027
				c-1.247-0.309-2.466-0.692-3.643-1.147c-0.004-0.005-0.007-0.009-0.011-0.014c-0.635-3.85-0.612-7.386-0.193-10.565
				c0.001-0.012,0.016-0.019,0.026-0.014c0.193,0.104,0.386,0.207,0.583,0.303c1.94,0.98,4.032,1.697,6.187,2.216
				c2.157,0.518,4.379,0.84,6.634,1c1.127,0.081,2.263,0.121,3.409,0.122c0.574-0.002,1.149-0.009,1.73-0.033
				c0.291-0.011,0.583-0.025,0.879-0.044l0.448-0.031c0.159-0.013,0.291-0.022,0.49-0.044l0.038-0.004
				c1.141-0.124,2.188-0.95,2.473-2.022c0.416-1.565-0.772-2.787-2.33-2.618c-0.076,0.008-0.155,0.021-0.23,0.035
				c-0.076,0.015-0.218,0.036-0.333,0.054l-0.375,0.052c-0.252,0.034-0.508,0.065-0.765,0.093c-0.514,0.058-1.032,0.102-1.55,0.141
				c-1.037,0.073-2.076,0.112-3.109,0.114c-2.067,0.005-4.113-0.137-6.094-0.455c-1.98-0.318-3.897-0.813-5.677-1.536
				c-0.619-0.241-1.208-0.525-1.782-0.83c-0.006-0.003-0.008-0.009-0.007-0.016c1.553-6.581,4.618-11.224,6.102-13.392
				c3.162-4.62,2.678-9.118,2.591-9.749c-0.002-0.017,0.021-0.027,0.03-0.013c-0.009-0.013,0.009-0.032,0.024-0.023
				c0.551,0.322,4.525,2.481,10.002,1.316c2.57-0.547,8.03-1.614,14.707-0.544c0.007,0.001,0.011,0.006,0.012,0.012
				c0.064,0.647,0.102,1.3,0.089,1.964c-0.009,1.92-0.281,3.882-0.741,5.834c-0.46,1.953-1.107,3.899-1.899,5.809
				c-0.395,0.955-0.826,1.901-1.289,2.832c-0.233,0.464-0.471,0.927-0.72,1.38c-0.124,0.227-0.25,0.452-0.377,0.672l-0.191,0.327
				c-0.06,0.1-0.134,0.223-0.177,0.288c-0.041,0.063-0.083,0.132-0.12,0.199c-0.749,1.376-0.072,2.94,1.534,3.151
				c1.099,0.144,2.262-0.51,2.811-1.517l0.018-0.033c0.095-0.175,0.155-0.294,0.227-0.436l0.199-0.402
				c0.13-0.267,0.254-0.531,0.375-0.796c0.243-0.529,0.469-1.058,0.689-1.587c0.435-1.06,0.831-2.126,1.185-3.199
				c0.71-2.146,1.259-4.323,1.601-6.514c0.341-2.19,0.474-4.398,0.306-6.564c-0.014-0.219-0.035-0.437-0.058-0.655
				c-0.001-0.011,0.011-0.022,0.023-0.019c3.099,0.824,6.378,2.148,9.696,4.201c0.003,0.006,0.006,0.01,0.008,0.016
				c-0.027,1.262-0.137,2.535-0.326,3.806c-0.364,2.454-1.019,4.896-1.887,7.281c-0.886,2.383-1.978,4.714-3.284,6.954
				c-1.298,2.242-2.776,4.404-4.404,6.469c-0.069,0.088-0.135,0.181-0.196,0.276c-1.038,1.639-0.295,3.645,1.73,3.911
				c1.209,0.159,2.494-0.517,3.175-1.593c1.547-2.442,2.914-4.971,4.064-7.557c1.158-2.584,2.064-5.237,2.727-7.902
				c0.646-2.668,1.04-5.352,1.116-8.001c0.017-0.594,0.016-1.185,0-1.774c0-0.014,0.017-0.023,0.027-0.015
				c3.262,2.422,6.523,5.605,9.649,9.759C141.096,368.025,141.097,368.029,141.096,368.032z"/>
			<path style="fill:#5F7A2A;" d="M115.37,380.12c0.267,0.934,0.484,1.892,0.651,2.862c0.384,2.208,0.498,4.486,0.351,6.757
				c-0.146,2.273-0.581,4.538-1.251,6.742c-0.695,2.202-1.626,4.341-2.769,6.384c-0.056,0.1-0.111,0.208-0.16,0.314
				c-1.028,2.245,0.102,4.74,2.535,4.835c1.46,0.057,2.909-0.976,3.585-2.455l0.002-0.004c1.209-2.642,2.149-5.401,2.772-8.187
				c0.599-2.79,0.883-5.601,0.814-8.331c-0.039-1.6-0.191-3.171-0.445-4.701c-0.002-0.015,0.015-0.027,0.026-0.018
				c14.694,11.578,14.155,24.786,10.035,32.958c-1.444,2.864-4.722,4.188-7.203,2.94l-6.945-3.491
				c-1.063-0.535-2.479-0.187-3.395,0.916c-0.073,0.088-0.14,0.179-0.203,0.272c-0.063,0.093-0.123,0.189-0.178,0.29
				c-0.687,1.26-0.487,2.703,0.403,3.494l5.809,5.164c2.075,1.845,2.057,5.38-0.072,7.78c-6.072,6.848-18.147,12.228-34.334,2.85
				c-0.012-0.007-0.007-0.028,0.007-0.031c1.516-0.329,3.032-0.768,4.533-1.323c2.563-0.945,5.069-2.247,7.441-3.835
				c2.359-1.608,4.576-3.501,6.584-5.6l0.003-0.003c1.124-1.175,1.55-2.903,0.957-4.239c-0.988-2.226-3.723-2.354-5.43-0.57
				c-0.08,0.084-0.161,0.176-0.233,0.264c-1.476,1.816-3.12,3.472-4.91,4.931c-1.801,1.436-3.746,2.678-5.804,3.653
				c-2.056,0.976-4.214,1.712-6.409,2.17c-0.963,0.203-1.934,0.355-2.9,0.453c-0.004,0-0.007-0.001-0.01-0.003
				c-4.135-3.151-7.298-6.431-9.7-9.708c-0.008-0.011,0.002-0.028,0.016-0.027c0.589,0.019,1.18,0.024,1.774,0.011
				c2.649-0.06,5.335-0.438,8.007-1.067c2.669-0.647,5.328-1.537,7.919-2.679c2.594-1.134,5.131-2.486,7.582-4.018
				c1.08-0.674,1.763-1.955,1.612-3.166c-0.254-2.027-2.255-2.782-3.9-1.753c-0.096,0.06-0.19,0.126-0.278,0.194
				c-2.076,1.615-4.246,3.08-6.496,4.364c-2.248,1.293-4.586,2.37-6.974,3.242c-2.39,0.854-4.837,1.493-7.293,1.843
				c-1.272,0.181-2.545,0.284-3.807,0.303c-0.005-0.003-0.01-0.006-0.016-0.009c-2.033-3.331-3.337-6.617-4.142-9.721
				c-0.003-0.011,0.007-0.024,0.019-0.022c0.217,0.024,0.435,0.047,0.654,0.062c2.165,0.18,4.374,0.061,6.566-0.266
				c2.194-0.329,4.374-0.864,6.524-1.561c1.076-0.348,2.144-0.736,3.206-1.165c0.531-0.217,1.061-0.439,1.592-0.68
				c0.265-0.119,0.53-0.242,0.798-0.37l0.404-0.196c0.142-0.071,0.261-0.13,0.437-0.225l0.033-0.018
				c1.011-0.543,1.672-1.702,1.534-2.802c-0.201-1.607-1.761-2.294-3.141-1.553c-0.067,0.036-0.136,0.077-0.2,0.119
				c-0.065,0.042-0.188,0.115-0.289,0.175l-0.328,0.189c-0.221,0.126-0.447,0.251-0.675,0.373c-0.454,0.246-0.919,0.482-1.384,0.712
				c-0.934,0.457-1.883,0.882-2.84,1.271c-1.914,0.78-3.865,1.415-5.82,1.864c-1.955,0.448-3.918,0.708-5.839,0.705
				c-0.664,0.009-1.317-0.033-1.964-0.101c-0.006-0.001-0.011-0.005-0.012-0.012c-1.029-6.683,0.071-12.137,0.634-14.703
				c1.199-5.469-0.937-9.457-1.255-10.01c-0.008-0.014,0.01-0.033,0.023-0.023c-0.013-0.009-0.003-0.033,0.013-0.031
				c0.631,0.091,5.126,0.603,9.765-2.531c2.177-1.471,6.838-4.507,13.429-6.02c0.006-0.001,0.013,0.001,0.016,0.007
				c0.302,0.576,0.582,1.167,0.819,1.787c0.712,1.784,1.195,3.704,1.501,5.686c0.306,1.983,0.436,4.03,0.418,6.097
				c-0.008,1.033-0.053,2.072-0.133,3.109c-0.042,0.518-0.089,1.036-0.15,1.549c-0.03,0.257-0.062,0.513-0.097,0.765l-0.055,0.375
				c-0.018,0.116-0.041,0.257-0.056,0.333c-0.015,0.074-0.028,0.154-0.036,0.229c-0.179,1.557,1.036,2.752,2.603,2.345
				c1.073-0.279,1.905-1.321,2.037-2.461l0.004-0.038c0.023-0.198,0.033-0.331,0.047-0.489l0.033-0.448
				c0.021-0.296,0.036-0.588,0.049-0.879c0.027-0.581,0.038-1.156,0.044-1.73c0.006-1.146-0.028-2.282-0.101-3.41
				c-0.146-2.255-0.454-4.479-0.959-6.639c-0.506-2.158-1.21-4.255-2.178-6.2c-0.095-0.198-0.196-0.392-0.299-0.585
				c-0.005-0.01,0.002-0.024,0.014-0.026c3.182-0.399,6.718-0.401,10.564,0.258c0.005,0.004,0.009,0.008,0.014,0.012
				c0.449,1.18,0.824,2.401,1.125,3.65c0.582,2.411,0.892,4.921,0.981,7.457c0.072,2.542-0.066,5.112-0.436,7.678
				c-0.362,2.566-0.922,5.123-1.656,7.649c-0.031,0.107-0.058,0.219-0.078,0.33c-0.348,1.909,1.093,3.49,3.07,2.976
				c1.181-0.306,2.118-1.415,2.346-2.668c0.518-2.844,0.837-5.701,0.933-8.53c0.104-2.83-0.051-5.629-0.436-8.348
				c-0.402-2.715-1.043-5.351-1.966-7.835c-0.207-0.557-0.43-1.105-0.665-1.645c-0.006-0.012,0.007-0.028,0.02-0.025
				c3.932,1.022,8.149,2.75,12.604,5.428C115.367,380.113,115.369,380.116,115.37,380.12z"/>
			<path style="fill:#9DC11E;" d="M223.13,418.553c-0.457,0-0.907,0.026-1.352,0.072c-1.759-10.337-10.736-18.215-21.574-18.215
				c-2.257,0-4.435,0.343-6.484,0.977c-4.016-14.061-16.952-24.358-32.303-24.358c-15.257,0-28.13,10.171-32.229,24.101
				c-1.755-0.453-3.585-0.719-5.481-0.719c-10.927,0-19.96,8.008-21.613,18.471c-0.917-0.208-1.867-0.328-2.847-0.328
				c-7.09,0-12.838,5.748-12.838,12.838c0,7.09,5.748,12.838,12.838,12.838H223.13c7.09,0,12.838-5.748,12.838-12.838
				C235.968,424.301,230.221,418.553,223.13,418.553z"/>
			<path style="fill:#779137;" d="M187.837,427.487c-0.298,0-0.592,0.017-0.881,0.047c-1.147-6.741-7-11.877-14.068-11.877
				c-1.472,0-2.892,0.224-4.228,0.637c-2.619-9.169-11.054-15.883-21.063-15.883c-9.948,0-18.342,6.632-21.016,15.715
				c-1.144-0.295-2.337-0.469-3.574-0.469c-7.125,0-13.015,5.222-14.093,12.044c-0.598-0.136-1.218-0.214-1.857-0.214
				c-4.623,0-8.371,3.748-8.371,8.371c0,4.623,3.748,8.371,8.371,8.371h80.779c4.623,0,8.371-3.748,8.371-8.371
				C196.208,431.235,192.46,427.487,187.837,427.487z"/>
			<path style="opacity:0.5;fill:#506029;" d="M148.779,444.229h45.718v-43.051c-0.259,0.07-0.522,0.13-0.777,0.209
				c-4.016-14.061-16.952-24.358-32.302-24.358c-0.489,0-0.975,0.011-1.458,0.032L148.779,444.229z"/>
		</g>
	</g>
	<rect x="59.639" y="444.229" style="fill:#3E5C70;" width="630.722" height="0.932"/>
	<g>
		<g>
			<rect x="296.385" y="78.171" style="fill:#FFFFFF;" width="310.481" height="310.481"/>
			<polygon style="fill:#DFF1F4;" points="296.385,281.609 357.618,226.508 296.385,253.286 			"/>
			
				<rect x="296.385" y="78.171" style="fill:none;stroke:#1D3244;stroke-width:3;stroke-miterlimit:10;" width="310.481" height="310.481"/>
			
				<line style="fill:none;stroke:#1D3244;stroke-width:0.5;stroke-miterlimit:10;" x1="296.385" y1="354.154" x2="606.866" y2="354.154"/>
			
				<line style="fill:none;stroke:#1D3244;stroke-width:0.5;stroke-miterlimit:10;" x1="296.385" y1="319.656" x2="606.866" y2="319.656"/>
			
				<line style="fill:none;stroke:#1D3244;stroke-width:3;stroke-miterlimit:10;" x1="296.385" y1="285.158" x2="606.866" y2="285.158"/>
			
				<line style="fill:none;stroke:#1D3244;stroke-width:0.5;stroke-miterlimit:10;" x1="296.385" y1="250.66" x2="606.866" y2="250.66"/>
			
				<line style="fill:none;stroke:#1D3244;stroke-width:0.5;stroke-miterlimit:10;" x1="296.385" y1="216.162" x2="606.866" y2="216.162"/>
			
				<line style="fill:none;stroke:#1D3244;stroke-width:3;stroke-miterlimit:10;" x1="296.385" y1="181.664" x2="606.866" y2="181.664"/>
			
				<line style="fill:none;stroke:#1D3244;stroke-width:0.5;stroke-miterlimit:10;" x1="296.385" y1="147.167" x2="606.866" y2="147.167"/>
			
				<line style="fill:none;stroke:#1D3244;stroke-width:0.5;stroke-miterlimit:10;" x1="296.385" y1="112.669" x2="606.866" y2="112.669"/>
			
				<line style="fill:none;stroke:#1D3244;stroke-width:0.5;stroke-miterlimit:10;" x1="572.368" y1="78.171" x2="572.368" y2="388.652"/>
			
				<line style="fill:none;stroke:#1D3244;stroke-width:0.5;stroke-miterlimit:10;" x1="537.87" y1="78.171" x2="537.87" y2="388.652"/>
			
				<line style="fill:none;stroke:#1D3244;stroke-width:3;stroke-miterlimit:10;" x1="503.372" y1="78.171" x2="503.372" y2="388.652"/>
			
				<line style="fill:none;stroke:#1D3244;stroke-width:0.5;stroke-miterlimit:10;" x1="468.875" y1="78.171" x2="468.875" y2="388.652"/>
			
				<line style="fill:none;stroke:#1D3244;stroke-width:0.5;stroke-miterlimit:10;" x1="434.377" y1="78.171" x2="434.377" y2="388.652"/>
			
				<line style="fill:none;stroke:#1D3244;stroke-width:3;stroke-miterlimit:10;" x1="399.879" y1="78.171" x2="399.879" y2="388.652"/>
			
				<line style="fill:none;stroke:#1D3244;stroke-width:0.5;stroke-miterlimit:10;" x1="365.381" y1="78.171" x2="365.381" y2="388.652"/>
			
				<line style="fill:none;stroke:#1D3244;stroke-width:0.5;stroke-miterlimit:10;" x1="330.883" y1="78.171" x2="330.883" y2="388.652"/>
		</g>
		<g>
			<text transform="matrix(1 0 0 1 307.997 102.6651)" style="fill:#1D3244; font-family:'Lato-Heavy'; font-size:23px;">5</text>
			<text transform="matrix(1 0 0 1 342.4852 102.6651)" style="fill:#1D3244; font-family:'Lato-Heavy'; font-size:23px;">3</text>
			<text transform="matrix(1 0 0 1 342.4852 310.0872)" style="fill:#1D3244; font-family:'Lato-Heavy'; font-size:23px;">6</text>
			<text transform="matrix(1 0 0 1 342.4852 171.1947)" style="fill:#1D3244; font-family:'Lato-Heavy'; font-size:23px;">9</text>
			<text transform="matrix(1 0 0 1 375.8847 171.1947)" style="fill:#1D3244; font-family:'Lato-Heavy'; font-size:23px;">8</text>
			<text transform="matrix(1 0 0 1 548.7837 171.1947)" style="fill:#1D3244; font-family:'Lato-Heavy'; font-size:23px;">6</text>
			<text transform="matrix(1 0 0 1 445.7263 102.6651)" style="fill:#1D3244; font-family:'Lato-Heavy'; font-size:23px;">7</text>
			<text transform="matrix(1 0 0 1 445.7263 137.2186)" style="fill:#1D3244; font-family:'Lato-Heavy'; font-size:23px;">9</text>
			<text transform="matrix(1 0 0 1 445.7263 378.6053)" style="fill:#1D3244; font-family:'Lato-Heavy'; font-size:23px;">8</text>
			<text transform="matrix(1 0 0 1 479.9956 137.2186)" style="fill:#1D3244; font-family:'Lato-Heavy'; font-size:23px;">5</text>
			<text transform="matrix(1 0 0 1 411.9758 137.2186)" style="fill:#1D3244; font-family:'Lato-Heavy'; font-size:23px;">1</text>
			<text transform="matrix(1 0 0 1 445.7263 344.3434)" style="fill:#1D3244; font-family:'Lato-Heavy'; font-size:23px;">1</text>
			<text transform="matrix(1 0 0 1 479.9956 344.3434)" style="fill:#1D3244; font-family:'Lato-Heavy'; font-size:23px;">9</text>
			<text transform="matrix(1 0 0 1 582.5099 344.3434)" style="fill:#1D3244; font-family:'Lato-Heavy'; font-size:23px;">5</text>
			<text transform="matrix(1 0 0 1 411.9758 344.3434)" style="fill:#1D3244; font-family:'Lato-Heavy'; font-size:23px;">4</text>
			<text transform="matrix(1 0 0 1 548.8464 310.0869)" style="fill:#1D3244; font-family:'Lato-Heavy'; font-size:23px;">8</text>
			<text transform="matrix(1 0 0 1 515.0958 310.0869)" style="fill:#1D3244; font-family:'Lato-Heavy'; font-size:23px;">2</text>
			<text transform="matrix(1 0 0 1 583.3442 377.1159)" style="fill:#1D3244; font-family:'Lato-Heavy'; font-size:23px;">9</text>
			<text transform="matrix(1 0 0 1 549.5936 377.1159)" style="fill:#1D3244; font-family:'Lato-Heavy'; font-size:23px;">7</text>
			<text transform="matrix(1 0 0 1 307.9758 137.2186)" style="fill:#1D3244; font-family:'Lato-Heavy'; font-size:23px;">6</text>
			<text transform="matrix(1 0 0 1 307.997 207.4857)" style="fill:#1D3244; font-family:'Lato-Heavy'; font-size:23px;">8</text>
			<text transform="matrix(1 0 0 1 307.9758 242.0391)" style="fill:#1D3244; font-family:'Lato-Heavy'; font-size:23px;">4</text>
			<text transform="matrix(1 0 0 1 411.1029 242.0391)" style="fill:#1D3244; font-family:'Lato-Heavy'; font-size:23px;">8</text>
			<text transform="matrix(1 0 0 1 479.3251 242.0391)" style="fill:#1D3244; font-family:'Lato-Heavy'; font-size:23px;">3</text>
			<text transform="matrix(1 0 0 1 307.9758 274.6048)" style="fill:#1D3244; font-family:'Lato-Heavy'; font-size:23px;">7</text>
			<text transform="matrix(1 0 0 1 582.5102 207.4857)" style="fill:#1D3244; font-family:'Lato-Heavy'; font-size:23px;">3</text>
			<text transform="matrix(1 0 0 1 582.489 242.0391)" style="fill:#1D3244; font-family:'Lato-Heavy'; font-size:23px;">1</text>
			<text transform="matrix(1 0 0 1 582.489 274.6048)" style="fill:#1D3244; font-family:'Lato-Heavy'; font-size:23px;">6</text>
			<text transform="matrix(1 0 0 1 445.7368 207.4857)" style="fill:#1D3244; font-family:'Lato-Heavy'; font-size:23px;">6</text>
			<text transform="matrix(1 0 0 1 445.7157 274.6048)" style="fill:#1D3244; font-family:'Lato-Heavy'; font-size:23px;">2</text>
		</g>
	</g>
	<g>
		<g>
			<g>
				<path style="fill:none;stroke:#FFB692;stroke-width:10;stroke-miterlimit:10;" d="M279.772,239.579
					c-46.599,10.917-67.866-26.093-63.001-49.685"/>
				<g>
					<path style="fill:#FFB692;" d="M273.324,238.498c-3.295-7.976,8.978-10.6,8.978-10.6l5.599-6.743c0,0,5.789,5.248-0.402,10.044
						c0,0,11.051-0.322,14.411,3.098c1.577,1.606,1.776,10.344-0.289,14.558c-0.438,0.894-1.517,1.247-2.399,0.786
						c-2.118-1.107-6.549-2.891-11.362-1.646C281.154,249.73,271.364,248.362,273.324,238.498z"/>
					<path style="fill:#D88D87;" d="M287.499,231.198c0,0,0.599,6.394-6.432,8.933c0,0,5.795-3.316,5.933-8.914L287.499,231.198z"/>
					<path style="fill:#D88D87;" d="M286.999,243.99c0,0,2.225-4.706,1.783-9.896C288.781,234.094,292.295,238.479,286.999,243.99z"
						/>
					<g>
						<path style="fill:#D88D87;" d="M287.79,242.182l0.22-0.363c0,0,8.776,0.95,14.015,6.076c-0.051,0.139-0.103,0.274-0.158,0.406
							C299.688,246.577,294.261,242.803,287.79,242.182z"/>
						<path style="fill:#D88D87;" d="M289.336,236.519l-0.141-0.67c0,0,8.664-1.705,13.848,2.493c0.142,1.65,0.116,3.58-0.104,5.435
							c-1.719-1.29-7.06-4.776-13.96-4.232l0.013-0.526c0,0,8.71-1.746,13.888,3.753l0.199-3.732
							C303.079,239.041,297.38,234.74,289.336,236.519z"/>
					</g>
				</g>
			</g>
			<path style="fill:#709632;" d="M226.127,204.231l0.4-19.854c-0.16-5.576-4.81-9.966-10.386-9.807h0
				c-5.576,0.16-9.967,4.81-9.807,10.386l-0.4,19.854L226.127,204.231z"/>
		</g>
		<g>
			<g>
				<g>
					<rect x="196.716" y="267.214" style="fill:#83A9FF;" width="18" height="176.51"/>
				</g>
				<g>
					<g>
						<g>
							<path style="fill:#1D3244;" d="M216.994,412.634l-0.105,12.131c0,0,12.637,0.211,16.338,16.933l-37.819-0.036v-29.028
								H216.994z"/>
						</g>
					</g>
					<path style="fill:#EF880C;" d="M199.904,427.681c0,2.096,1.699,3.795,3.795,3.795c2.096,0,3.795-1.699,3.795-3.795
						c0-2.096-1.699-3.795-3.795-3.795C201.604,423.887,199.904,425.586,199.904,427.681z"/>
					<path style="fill:#F2C50A;" d="M225.81,428.461c-2.395,2.438-4.681,6.582-3.685,13.225l11.102,0.011
						C231.735,434.958,228.792,430.904,225.81,428.461z"/>
					
						<rect x="194.555" y="440.807" transform="matrix(-1 -1.224647e-16 1.224647e-16 -1 428.4251 885.0365)" style="fill:#F2C50A;" width="39.316" height="3.421"/>
					
						<rect x="194.555" y="440.807" transform="matrix(-1 -1.224647e-16 1.224647e-16 -1 428.4251 882.8592)" style="fill:#EF880C;" width="39.316" height="1.244"/>
				</g>
			</g>
			<path style="fill:#83A9FF;" d="M201.895,237.421h-14.803c-10.919,0-19.852,8.933-19.852,19.852v0
				c0,10.919,8.933,19.852,19.852,19.852h14.803c10.919,0,19.852-8.934,19.852-19.852v0
				C221.747,246.354,212.813,237.421,201.895,237.421z"/>
			<path style="fill:none;stroke:#6A86B7;stroke-miterlimit:10;" d="M172.329,263.449c0,0,7.667,1.56,11.778-5.553"/>
			<g>
				<g>
					<rect x="173.866" y="267.214" style="fill:#83A9FF;" width="18" height="176.51"/>
				</g>
				<polygon style="fill:#678ED3;" points="173.866,335.004 191.866,322.436 191.866,289.514 173.866,296.485 				"/>
				<polygon style="fill:#678ED3;" points="196.716,319.049 214.716,306.48 214.716,280.665 196.716,287.636 				"/>
				<g>
					<g>
						<path style="fill:#303E47;" d="M194.144,412.634l-0.105,12.131c0,0,12.637,0.211,16.338,16.933l-37.819-0.036v-29.028H194.144
							z"/>
					</g>
					<path style="fill:#F2C50A;" d="M177.054,427.681c0,2.096,1.699,3.795,3.795,3.795c2.096,0,3.795-1.699,3.795-3.795
						c0-2.096-1.699-3.795-3.795-3.795C178.753,423.887,177.054,425.586,177.054,427.681z"/>
					<path style="fill:#F2C50A;" d="M202.959,428.461c-2.395,2.438-4.681,6.582-3.685,13.225l11.102,0.011
						C208.885,434.958,205.941,430.904,202.959,428.461z"/>
					
						<rect x="171.704" y="440.807" transform="matrix(-1 -1.224647e-16 1.224647e-16 -1 382.7241 885.0365)" style="fill:#F2C50A;" width="39.316" height="3.421"/>
					
						<rect x="171.704" y="440.807" transform="matrix(-1 -1.224647e-16 1.224647e-16 -1 382.7241 882.8592)" style="fill:#EF880C;" width="39.316" height="1.244"/>
				</g>
			</g>
		</g>
		<g>
			<g>
				<path style="fill:#9DC11E;" d="M219.672,246.146c0.012,2.176-1.214,4.183-3.177,5.121c-4.346,2.077-10.657,4.351-18.491,4.9
					c-11.026,0.774-19.883-2.232-25.172-4.665c-1.992-0.916-3.258-2.919-3.27-5.111c-0.106-19.774-0.212-37.895-0.318-57.551
					c-0.061-11.353,9.093-20.609,20.446-20.669l10.358-0.055c10.601-0.056,19.242,8.492,19.298,19.094L219.672,246.146z"/>
			</g>
		</g>
		<g>
			<path style="fill:#FFB692;" d="M181.439,169.743c-0.739,4.334,4.534,8.849,11.777,10.084c7.244,1.236,13.715-1.276,14.454-5.609
				c0.739-4.334-4.534-8.849-11.777-10.084C188.65,162.898,182.178,165.409,181.439,169.743z"/>
		</g>
		<path style="fill:#D88D87;" d="M199.208,148.47c-0.184,1.099-2.46,1.633-5.085,1.194c-2.624-0.439-4.603-1.686-4.419-2.784
			c0.184-1.099,2.46-1.633,5.085-1.194C197.413,146.126,199.391,147.372,199.208,148.47z"/>
		<g>
			<g>
				<path style="fill:#ECB220;" d="M171.961,98.237c1.113-1.083,2.892-1.059,3.975,0.054c1.083,1.113,1.059,2.892-0.054,3.975
					c-1.113,1.083-2.893,1.059-3.975-0.054C170.824,101.099,170.848,99.32,171.961,98.237z"/>
				<path style="fill:#1D3244;" d="M212.909,109.004l-39.295,14.448l-1.729-4.702c-3.99-10.851,1.572-22.881,12.423-26.871l0,0
					c10.851-3.99,22.883,1.572,26.872,12.424L212.909,109.004z"/>
				<path style="fill:#ECB220;" d="M175.26,110.6l5.328-13.242c2.077-6.717,8.981-11.402,16.012-11.402h5.611
					c10.196,0,17.802,9.392,15.683,19.366l-2.325,10.94L175.26,110.6z"/>
			</g>
			<path style="fill:#FFB692;" d="M194.298,111.325l-0.874,0.005c-5.6,0.03-10.102,7.145-10.056,15.892l0.23,43.367l21.154-0.112
				l-0.23-43.367C204.475,118.362,199.898,111.295,194.298,111.325z"/>
			<path style="fill:#D88D87;" d="M194.298,111.325l-0.874,0.005c-5.6,0.03-10.105,6.628-10.062,14.738l0.157,29.629
				c0.031,5.841,4.791,10.552,10.633,10.521l0,0c5.841-0.031,10.552-4.791,10.521-10.633l-0.157-29.629
				C204.473,117.845,199.898,111.295,194.298,111.325z"/>
			<g>
				
					<ellipse transform="matrix(0.9863 -0.165 0.165 0.9863 -17.326 33.9606)" style="fill:#54321A;" cx="195.751" cy="121.268" rx="24.758" ry="24.758"/>
				<path style="fill:#D88D87;" d="M172.783,136.436h45.936c2.01,0,3.639-1.629,3.639-3.639v0c0-2.01-1.629-3.639-3.639-3.639
					h-45.936c-2.01,0-3.639,1.629-3.639,3.639l0,0C169.145,134.807,170.774,136.436,172.783,136.436z"/>
				<path style="fill:#AA635F;" d="M220.453,132.797L220.453,132.797c0-0.958-0.776-1.734-1.734-1.734h-45.937
					c-0.957,0-1.734,0.776-1.734,1.734l0,0c0,0.958,0.777,1.734,1.734,1.734h45.936
					C219.677,134.531,220.453,133.755,220.453,132.797z"/>
				<path style="fill:#54321A;" d="M195.751,167.075L195.751,167.075c11.218,0,20.312-9.094,20.312-20.312V124.21
					c0-10.755-8.719-19.474-19.474-19.474h-1.677c-10.755,0-19.474,8.719-19.474,19.474v22.553
					C175.439,157.98,184.533,167.075,195.751,167.075z"/>
				<g>
					<path style="fill:#252538;" d="M200.201,141.902c-2.063-0.524-4.932-1.398-7.592-2.716c-1.749-0.867-3.545,1.292-2.77,3.364
						c0.824,2.204,2.437,4.348,5.572,4.921c2.569,0.469,4.287-0.059,5.432-0.921C202.463,145.33,202.04,142.368,200.201,141.902z"/>
					<path style="fill:#FF9292;" d="M195.411,147.47c-3.135-0.573-4.748-2.716-5.572-4.921c-0.116-0.311-0.168-0.622-0.178-0.926
						c1.17-0.401,2.686-0.467,4.651,0.158c3.035,0.964,4.348,3.292,4.869,5.578c0.001,0.005,0.001,0.009,0.002,0.013
						C198.192,147.669,196.958,147.753,195.411,147.47z"/>
					<path style="fill:#FFABAB;" d="M197.162,145.03c-0.361,0.504-1.548,0.307-2.652-0.442c-1.104-0.749-1.706-1.765-1.345-2.269
						c0.361-0.505,1.548-0.307,2.652,0.442C196.921,143.509,197.523,144.525,197.162,145.03z"/>
					<path style="fill:#FFFFFF;" d="M200.201,141.902c-2.063-0.524-4.932-1.398-7.592-2.716c-1.074-0.533-2.164,0.078-2.667,1.107
						c1.485,1.596,3.849,2.996,6.688,3.788c1.821,0.508,3.603,0.7,5.202,0.616C201.955,143.481,201.36,142.196,200.201,141.902z"/>
				</g>
				<g>
					<path style="fill:#252538;" d="M204.757,127.931c1.313,0,2.377,1.064,2.377,2.377c0,1.313-1.064,2.377-2.377,2.377
						c-1.313,0-2.377-1.064-2.377-2.377C202.38,128.996,203.445,127.931,204.757,127.931z"/>
					<circle style="fill:#252538;" cx="186.745" cy="130.309" r="2.377"/>
				</g>
				<path style="fill:#D88D87;" d="M195.751,140.183L195.751,140.183c1.868,0,3.383-1.515,3.383-3.383v-5.486
					c0-1.868-1.515-3.383-3.383-3.383h0c-1.868,0-3.383,1.515-3.383,3.383v5.486C192.368,138.669,193.883,140.183,195.751,140.183z"
					/>
				<g>
					<path style="fill:#A1BDC6;" d="M182.772,123.562l4.12-1.298c0.903-0.285,1.866,0.217,2.15,1.12
						c0.285,0.903-0.217,1.866-1.12,2.15l-4.121,1.298c-0.903,0.285-1.866-0.217-2.15-1.12
						C181.367,124.809,181.869,123.847,182.772,123.562z"/>
					<path style="fill:#A1BDC6;" d="M204.61,122.264l4.121,1.298c0.903,0.284,1.405,1.247,1.12,2.15
						c-0.285,0.903-1.247,1.405-2.15,1.12l-4.121-1.298c-0.903-0.285-1.404-1.247-1.12-2.15
						C202.744,122.481,203.707,121.98,204.61,122.264z"/>
				</g>
				<path style="fill:#D88D87;" d="M191.091,152.938c0,1.077,2.086,1.951,4.66,1.951c2.574,0,4.66-0.873,4.66-1.951
					c0-1.077-2.086-1.951-4.66-1.951C193.178,150.987,191.091,151.861,191.091,152.938z"/>
				<path style="fill:#FFB692;" d="M195.751,161.347L195.751,161.347c11.218,0,20.312-9.094,20.312-20.312v-22.553
					c0-10.755-8.719-19.474-19.474-19.474h-1.677c-10.755,0-19.474,8.719-19.474,19.474v22.553
					C175.439,152.253,184.533,161.347,195.751,161.347z"/>
				<g>
					<g>
						<path style="fill:#252538;" d="M200.201,141.902c-2.063-0.524-4.932-1.398-7.592-2.716c-1.749-0.867-3.545,1.292-2.77,3.364
							c0.824,2.204,2.437,4.348,5.572,4.921c2.569,0.469,4.287-0.059,5.432-0.921C202.463,145.33,202.04,142.368,200.201,141.902z"
							/>
						<path style="fill:#FF9292;" d="M195.411,147.47c-3.135-0.573-4.748-2.716-5.572-4.921c-0.116-0.311-0.168-0.622-0.178-0.926
							c1.17-0.401,2.686-0.467,4.651,0.158c3.035,0.964,4.348,3.292,4.869,5.578c0.001,0.005,0.001,0.009,0.002,0.013
							C198.192,147.669,196.958,147.753,195.411,147.47z"/>
						<path style="fill:#FFABAB;" d="M197.162,145.03c-0.361,0.504-1.548,0.307-2.652-0.442c-1.104-0.749-1.706-1.765-1.345-2.269
							c0.361-0.505,1.548-0.307,2.652,0.442C196.921,143.509,197.523,144.525,197.162,145.03z"/>
						<path style="fill:#FFFFFF;" d="M200.201,141.902c-2.063-0.524-4.932-1.398-7.592-2.716c-1.074-0.533-2.164,0.078-2.667,1.107
							c1.485,1.596,3.849,2.996,6.688,3.788c1.821,0.508,3.603,0.7,5.202,0.616C201.955,143.481,201.36,142.196,200.201,141.902z"/>
					</g>
					<g>
						<path style="fill:#252538;" d="M206.969,127.931c1.313,0,2.377,1.064,2.377,2.377c0,1.313-1.064,2.377-2.377,2.377
							c-1.313,0-2.377-1.064-2.377-2.377C204.592,128.996,205.656,127.931,206.969,127.931z"/>
						<path style="fill:#252538;" d="M188.957,127.931c1.313,0,2.377,1.064,2.377,2.377c0,1.313-1.064,2.377-2.377,2.377
							s-2.377-1.064-2.377-2.377C186.58,128.996,187.644,127.931,188.957,127.931z"/>
					</g>
					<path style="fill:#D88D87;" d="M197.963,140.183L197.963,140.183c1.868,0,3.383-1.515,3.383-3.383v-5.486
						c0-1.868-1.515-3.383-3.383-3.383l0,0c-1.868,0-3.383,1.515-3.383,3.383v5.486C194.58,138.669,196.095,140.183,197.963,140.183
						z"/>
					<g>
						<path style="fill:#54321A;" d="M184.984,123.562l4.121-1.298c0.903-0.285,1.866,0.217,2.15,1.12
							c0.284,0.903-0.217,1.866-1.12,2.15l-4.121,1.298c-0.903,0.285-1.866-0.217-2.15-1.12
							C183.579,124.809,184.081,123.847,184.984,123.562z"/>
						<path style="fill:#54321A;" d="M206.822,122.264l4.121,1.298c0.903,0.284,1.405,1.247,1.12,2.15
							c-0.285,0.903-1.247,1.405-2.15,1.12l-4.121-1.298c-0.903-0.285-1.405-1.247-1.12-2.15
							C204.956,122.481,205.919,121.98,206.822,122.264z"/>
					</g>
					<path style="fill:#D88D87;" d="M191.091,152.938c0,1.077,2.086,1.951,4.66,1.951c2.574,0,4.66-0.873,4.66-1.951
						c0-1.077-2.086-1.951-4.66-1.951C193.178,150.987,191.091,151.861,191.091,152.938z"/>
				</g>
				<path style="fill:#F79C97;" d="M196.166,138.262L196.166,138.262c0.494,0,0.894-0.4,0.894-0.894v-6.35
					c0-0.493-0.4-0.894-0.894-0.894l0,0c-0.494,0-0.894,0.4-0.894,0.894v6.35C195.273,137.862,195.673,138.262,196.166,138.262z"/>
				<path style="fill:#54321A;" d="M180.314,101.919c3.663,2.036,6.145,5.941,6.145,10.429c0,6.587-5.34,11.927-11.927,11.927
					c-1.187,0-2.331-0.179-3.412-0.502c-0.083-0.824-0.126-1.66-0.126-2.506C170.993,113.435,174.635,106.456,180.314,101.919z"/>
				<path style="fill:#54321A;" d="M211.086,101.919c-3.663,2.036-6.145,5.941-6.145,10.429c0,6.587,5.34,11.927,11.927,11.927
					c1.187,0,2.33-0.179,3.412-0.502c0.083-0.824,0.126-1.66,0.126-2.506C220.407,113.435,216.765,106.456,211.086,101.919z"/>
				<g>
					<path style="fill:#54321A;" d="M196.382,118.671h-13.543l0,0c0-10.964,8.888-19.852,19.852-19.852h13.543l0,0
						C216.233,109.783,207.345,118.671,196.382,118.671z"/>
					<path style="fill:#54321A;" d="M194.212,113.586l-10.493,3.047l0,0c-2.467-8.495,2.42-17.382,10.915-19.848l10.493-3.047l0,0
						C207.594,102.232,202.707,111.119,194.212,113.586z"/>
					<path style="fill:#54321A;" d="M192.074,112.834l-9.237,5.837l0,0c-4.726-7.478-2.495-17.371,4.983-22.097l9.237-5.837l0,0
						C201.783,98.215,199.552,108.108,192.074,112.834z"/>
				</g>
				<path style="fill:#875330;" d="M182.917,101.433c6.598,5.295,17.964,11.392,31.386,5.933c-1.578,3.303-4.044,6.098-7.087,8.084
					c-8.77,1.411-19.301-1.601-26.701-7.534C180.833,105.621,181.647,103.404,182.917,101.433z"/>
			</g>
		</g>
		<g>
			<path style="fill:#F98F8F;" d="M115.918,325.452L115.918,325.452c-4.195-8.643-0.589-19.049,8.054-23.243l6.01-2.917
				l15.19,31.297l-6.01,2.917C130.519,337.701,120.112,334.095,115.918,325.452z"/>
			<path style="fill:#C66666;" d="M125.584,301.427l10.668,33.169c0.983-0.276,1.958-0.628,2.909-1.089l6.01-2.917l-15.189-31.297
				L125.584,301.427z"/>
			<g>
				
					<rect x="230.8" y="147.092" transform="matrix(0.4366 0.8996 -0.8996 0.4366 374.6859 -75.2081)" style="fill:#E29539;" width="33.185" height="228.938"/>
				
					<rect x="235.474" y="139.628" transform="matrix(0.4366 0.8996 -0.8996 0.4366 365.9314 -76.1538)" style="fill:#EDCB3A;" width="16.593" height="228.938"/>
				<path style="fill:#E29539;" d="M216.307,278.755l-22.128-9.812l-16.898,8.201C193.879,288.576,216.307,278.755,216.307,278.755z
					"/>
				<polygon style="fill:#FFB692;" points="343.129,196.653 381.188,196.626 357.618,226.508 				"/>
				<path style="fill:#1D3244;" d="M367.781,196.635c-0.195,0.656-0.876,3.227,0.407,6.052c1.399,3.081,4.12,4.235,4.697,4.464
					c2.767-3.509,5.535-7.017,8.302-10.526L367.781,196.635z"/>
				<g>
					<path style="fill:#FFB692;" d="M350.373,211.581l-7.245-14.927C343.129,196.653,340.474,206.67,350.373,211.581z"/>
					<path style="fill:#FFB692;" d="M350.373,211.581c0,0-2.655,10.016,7.245,14.927L350.373,211.581z"/>
				</g>
			</g>
			
				<rect x="121.56" y="307.555" transform="matrix(0.4366 0.8996 -0.8996 0.4366 361.2797 49.5949)" style="fill:#AFCBCE;" width="38.963" height="11.407"/>
			
				<rect x="133.757" y="313.036" transform="matrix(0.4366 0.8996 -0.8996 0.4366 367.7101 50.2901)" style="fill:#8CAEAF;" width="19.889" height="11.407"/>
			
				<rect x="133.198" y="298.492" transform="matrix(0.4366 0.8996 -0.8996 0.4366 350.6469 48.4452)" style="fill:#E3FBFC;" width="6.889" height="11.407"/>
		</g>
		<g>
			<path style="fill:none;stroke:#FFB692;stroke-width:10;stroke-miterlimit:10;" d="M170.766,194.537
				c-22.411,41.87-14.493,67.587,28.745,72.502"/>
			<path style="fill:#709632;" d="M175.383,210.438l10.768-20.256c2.744-5.831,0.241-12.783-5.59-15.526h0
				c-5.831-2.744-12.783-0.241-15.526,5.59l-10.769,20.256L175.383,210.438z"/>
			<g>
				<g>
					<path style="fill:#FFB692;" d="M193.805,266.487c-1.65-7.551,9.584-7.934,9.584-7.934l5.998-5.065c0,0,4.279,5.538-1.935,8.793
						c0,0,6.712,1.942,11.615,0.134c5.985-2.206,2.38,12.398-2.759,16.34c-2.791,2.141-6.81-1.212-11.25-0.871
						C198.871,278.359,190.524,274.875,193.805,266.487z"/>
				</g>
				<g>
					<path style="fill:#D88D87;" d="M207.312,270.36l-0.156,0.549c0,0,6.949,2.931,13.195,2.04c0.138-0.316,0.272-0.635,0.397-0.957
						C218.277,272.583,213.672,272.959,207.312,270.36z"/>
					<path style="fill:#D88D87;" d="M206.456,274.498c0,0,6.238,2.71,11.31,2.814c0.221-0.268,0.436-0.555,0.646-0.854
						c-2.162,0-6.534-0.333-11.803-2.551L206.456,274.498z"/>
					<path style="fill:#D88D87;" d="M208.076,266.537c0,0,6.994,3.206,13.959,0.715c0.069-0.479,0.113-0.939,0.131-1.375
						c-2.693,1.053-7.601,2.199-13.96,0.289L208.076,266.537z"/>
				</g>
			</g>
		</g>
	</g>
</g>
</svg>
